<?xml version="1.0" standalone="no"?>
<!DOCTYPE svg PUBLIC "-//W3C//DTD SVG 20010904//EN"
 "http://www.w3.org/TR/2001/REC-SVG-20010904/DTD/svg10.dtd">
<svg version="1.0" xmlns="http://www.w3.org/2000/svg"
 width="2832.000000pt" height="889.000000pt" viewBox="0 0 2832.000000 889.000000"
 preserveAspectRatio="xMidYMid meet">

<g transform="translate(0.000000,889.000000) scale(0.100000,-0.100000)"
fill="#000000" stroke="none">
<path d="M555 8380 l-140 -140 37 -37 36 -36 143 142 142 142 -34 35 c-18 19
-35 34 -39 34 -3 0 -68 -63 -145 -140z"/>
<path d="M1739 8484 l-34 -36 55 -49 55 -49 35 35 34 35 -49 50 c-27 27 -52
50 -55 50 -3 0 -22 -16 -41 -36z"/>
<path d="M665 8270 l-139 -140 34 -35 34 -35 143 142 143 142 -32 33 c-18 18
-34 33 -38 33 -3 0 -68 -63 -145 -140z"/>
<path d="M1632 8377 l-32 -33 143 -142 143 -142 34 35 34 35 -139 140 c-77 77
-142 140 -145 140 -4 0 -20 -15 -38 -33z"/>
<path d="M2220 8344 c0 -3 9 -19 21 -35 34 -48 98 -195 124 -286 86 -296 38
-674 -118 -920 l-27 -43 12882 0 c12494 0 12884 1 12924 19 49 22 109 90 118
133 3 17 6 243 6 502 0 434 -2 474 -19 511 -23 51 -79 101 -128 114 -41 12
-25783 16 -25783 5z"/>
<path d="M1922 8307 l-31 -32 49 -55 49 -55 38 37 37 38 -49 50 c-27 27 -52
50 -55 50 -3 0 -20 -15 -38 -33z"/>
<path d="M772 8167 l-142 -143 38 -37 38 -37 142 143 142 143 -38 37 -38 37
-142 -143z"/>
<path d="M1527 8272 l-37 -38 48 -47 c26 -26 52 -47 57 -47 6 0 25 14 44 31
l34 31 -54 54 -55 54 -37 -38z"/>
<path d="M1712 8097 c-18 -18 -32 -37 -32 -43 0 -5 22 -31 48 -57 l48 -47 37
38 37 38 -53 52 -53 52 -32 -33z"/>
<path d="M1102 8080 c-111 -40 -203 -134 -243 -247 -31 -88 -24 -216 17 -303
39 -83 110 -155 194 -194 60 -29 73 -31 170 -31 97 0 110 2 170 31 84 39 155
111 194 194 41 87 48 215 17 303 -40 115 -133 208 -247 247 -75 26 -198 26
-272 0z"/>
<path d="M667 7412 l-37 -38 143 -142 143 -142 37 38 37 38 -143 142 -143 142
-37 -38z"/>
<path d="M1727 7402 c-26 -26 -47 -52 -47 -58 0 -5 15 -24 33 -42 l33 -32 52
53 52 53 -38 37 -38 37 -47 -48z"/>
<path d="M560 7305 l-34 -35 52 -53 52 -52 35 35 35 36 -53 52 -53 52 -34 -35z"/>
<path d="M1832 7287 l-52 -53 35 -34 35 -34 53 52 52 52 -35 35 -36 35 -52
-53z"/>
<path d="M1537 7212 l-47 -48 38 -37 38 -37 52 53 52 53 -33 32 c-18 18 -37
32 -43 32 -5 0 -31 -22 -57 -48z"/>
<path d="M450 7195 l-34 -36 142 -142 142 -142 37 37 36 37 -140 140 c-78 78
-143 141 -145 141 -2 0 -19 -16 -38 -35z"/>
<path d="M1936 7178 l-45 -53 34 -35 35 -35 52 52 52 53 -34 35 c-19 19 -37
35 -41 35 -4 0 -28 -24 -53 -52z"/>
<path d="M740 7125 l-34 -35 52 -53 52 -52 35 35 35 36 -53 52 -53 52 -34 -35z"/>
<path d="M1652 7107 l-52 -53 35 -34 35 -34 53 52 52 52 -35 35 -36 35 -52
-53z"/>
<path d="M1760 7000 l-55 -49 38 -38 37 -38 52 53 53 52 -35 35 -35 35 -55
-50z"/>
<path d="M1045 5609 c-134 -23 -233 -56 -345 -114 l-85 -44 48 0 c26 -1 47 -5
47 -11 0 -5 -3 -10 -8 -10 -4 0 -24 -14 -44 -30 l-37 -31 15 -41 c24 -68 19
-73 -34 -35 l-47 35 -30 -24 c-17 -14 -39 -30 -49 -36 -16 -9 -18 -8 -12 7 3
9 9 28 13 43 6 25 4 24 -41 -14 -26 -21 -74 -73 -106 -114 -49 -62 -56 -76
-42 -81 13 -5 9 -11 -20 -30 -51 -33 -61 -58 -43 -110 17 -48 13 -59 -13 -36
-26 24 -31 22 -51 -25 -17 -40 -17 -44 0 -88 l17 -45 56 -3 c31 -2 56 -7 56
-11 0 -5 -18 -20 -40 -35 -45 -29 -46 -36 -25 -96 8 -24 13 -45 11 -48 -3 -2
-24 10 -47 28 l-41 33 -33 -17 c-27 -15 -34 -25 -39 -63 -3 -25 -6 -59 -6 -74
l0 -29 582 0 583 0 -78 -78 -77 -77 0 -501 0 -501 78 -7 c43 -3 112 -3 155 0
l77 7 0 503 0 504 494 0 495 0 4 23 c2 12 4 2 5 -23 0 -25 -5 -70 -11 -100
l-12 -55 -300 -5 -300 -5 191 -194 192 -195 33 47 c18 26 37 47 42 47 4 0 5
-4 2 -10 -4 -7 3702 -10 11112 -10 10779 0 11119 1 11159 19 49 22 109 90 118
133 3 17 6 243 6 502 0 434 -2 474 -19 511 -23 51 -79 101 -128 114 -26 8
-3430 11 -11160 11 -11112 0 -11122 0 -11133 20 -6 11 -16 20 -23 20 -7 0 -99
-88 -204 -195 l-191 -195 293 0 c225 0 295 3 298 13 3 6 6 1 7 -13 1 -14 3
-32 5 -40 14 -59 21 -110 17 -115 -9 -9 -992 -6 -992 3 0 5 31 39 69 75 l69
66 -147 3 -146 3 -3 153 -3 152 308 0 308 0 108 108 109 109 -47 41 -48 42
-366 2 -366 3 -3 128 -3 127 -37 -1 c-20 0 -86 -9 -147 -20z m30 -159 l60 -1
-25 -22 c-14 -12 -36 -29 -49 -38 l-24 -15 18 -53 c9 -29 15 -54 13 -57 -3 -2
-25 11 -49 30 l-44 34 -47 -35 c-27 -19 -48 -31 -48 -26 0 5 7 31 16 57 16 46
16 48 -5 63 -12 8 -34 26 -49 39 l-27 23 61 1 60 0 19 58 18 57 21 -57 21 -58
60 0z m-499 -285 l18 -55 58 0 c32 0 58 -3 58 -7 -1 -5 -21 -23 -45 -40 l-44
-33 14 -41 c24 -68 20 -74 -27 -40 -23 17 -47 31 -52 31 -6 0 -29 -14 -50 -30
-22 -17 -41 -29 -42 -27 -2 2 4 27 14 56 l16 53 -26 19 c-15 11 -37 28 -50 39
l-23 19 62 1 62 0 17 55 c10 30 19 55 20 55 2 0 11 -25 20 -55z m498 -55 l61
-1 -25 -22 c-14 -12 -36 -29 -49 -38 l-24 -15 18 -53 c9 -29 15 -54 13 -57 -3
-2 -22 9 -44 26 -21 16 -43 30 -47 30 -5 0 -28 -14 -53 -30 -49 -35 -51 -33
-28 34 16 46 16 48 -5 63 -12 8 -34 26 -49 39 l-27 23 61 1 60 0 19 58 18 57
20 -57 21 -58 60 0z m1176 -70 c6 -11 8 -20 6 -20 -3 0 -10 9 -16 20 -6 11 -8
20 -6 20 3 0 10 -9 16 -20z m60 -125 c0 -5 -5 -3 -10 5 -5 8 -10 20 -10 25 0
6 5 3 10 -5 5 -8 10 -19 10 -25z m-1734 -90 l18 -55 58 0 c32 0 58 -3 58 -7 0
-7 -33 -32 -82 -64 -4 -3 -2 -25 7 -48 24 -70 20 -76 -27 -42 -23 17 -47 31
-52 31 -6 0 -29 -14 -50 -30 -22 -17 -41 -28 -43 -27 -2 2 4 23 12 47 21 60
20 64 -25 95 -22 15 -40 32 -40 36 0 5 25 9 54 9 l55 0 17 55 c10 30 19 55 20
55 2 0 11 -25 20 -55z m495 -55 c32 0 59 -3 59 -7 0 -5 -20 -21 -45 -36 -25
-16 -45 -32 -45 -37 0 -4 7 -27 15 -50 22 -62 20 -64 -29 -30 -25 16 -47 30
-51 30 -4 0 -26 -14 -51 -30 -49 -34 -51 -32 -29 30 8 23 15 45 15 49 0 3 -20
20 -45 36 -24 17 -45 33 -45 38 0 4 26 7 58 7 l58 0 19 58 18 57 19 -57 20
-58 59 0z m1326 -387 c-3 -10 -5 -2 -5 17 0 19 2 27 5 18 2 -10 2 -26 0 -35z"/>
<path d="M26989 4780 c-45 -13 -79 -42 -107 -89 -24 -42 -27 -56 -30 -178 -3
-83 0 -151 8 -181 24 -96 96 -151 199 -152 112 0 190 69 199 176 l4 54 -35 0
c-32 0 -35 -3 -42 -37 -15 -81 -60 -123 -132 -123 -41 0 -92 35 -109 75 -19
47 -19 263 0 309 52 125 218 102 240 -34 6 -38 8 -40 41 -40 34 0 35 1 35 39
0 130 -137 222 -271 181z"/>
<path d="M27403 4661 c-29 -66 -53 -125 -53 -131 0 -7 14 -10 36 -8 37 3 37 4
85 113 l49 110 0 -242 0 -243 -80 0 -80 0 0 -35 0 -35 200 0 200 0 0 35 0 35
-80 0 -80 0 -2 258 -3 257 -70 3 -70 3 -52 -120z"/>
<path d="M1550 4150 c0 -3 112 -118 250 -255 l250 -250 35 35 35 35 -219 219
-218 218 -67 2 c-36 0 -66 -1 -66 -4z"/>
<path d="M134 4083 c13 -38 42 -105 65 -150 l41 -83 188 0 187 0 150 150 150
150 -402 0 -402 0 23 -67z"/>
<path d="M672 3897 c-138 -138 -252 -257 -251 -262 0 -6 16 -23 35 -39 l34
-28 220 223 219 224 1 68 c0 37 -1 67 -3 67 -1 0 -116 -114 -255 -253z"/>
<path d="M726 3731 l-198 -199 58 -39 c108 -73 322 -169 339 -151 3 3 4 136 3
297 l-3 291 -199 -199z"/>
<path d="M1540 3637 c0 -220 -3 -297 -12 -297 -6 0 -9 -3 -5 -6 19 -19 315
114 385 173 l33 28 -201 200 -200 200 0 -298z"/>
<path d="M1076 2359 c-380 -52 -694 -261 -880 -587 -153 -266 -193 -611 -104
-902 11 -36 25 -68 32 -72 6 -4 500 -8 1098 -8 l1087 0 -35 -76 c-19 -42 -56
-109 -82 -148 -26 -39 -49 -75 -50 -79 -2 -4 146 -7 329 -5 l334 3 38 27 c22
14 51 43 65 65 l27 38 3 480 c2 328 0 492 -8 518 -14 49 -65 106 -115 128 -35
17 -71 19 -312 19 l-271 0 -27 48 c-88 151 -256 312 -430 410 -200 113 -486
171 -699 141z"/>
<path d="M20067 1412 c-37 -41 -11 -102 42 -102 55 0 80 61 41 100 -25 25 -62
26 -83 2z"/>
<path d="M16380 1125 l0 -295 35 0 35 0 0 130 0 130 120 0 119 0 3 -127 3
-128 38 -3 37 -3 0 296 0 296 -37 -3 -38 -3 -3 -127 -3 -128 -119 0 -120 0 0
130 0 130 -35 0 -35 0 0 -295z"/>
<path d="M19027 1414 c-4 -4 -7 -42 -7 -85 l0 -78 -62 -3 c-63 -3 -63 -3 -63
-33 0 -30 0 -30 62 -33 l62 -3 3 -153 c4 -197 4 -198 127 -194 l86 3 0 30 0
30 -67 3 -68 3 0 139 0 139 78 3 77 3 0 30 0 30 -77 3 -77 3 -3 82 -3 82 -30
3 c-17 2 -34 0 -38 -4z"/>
<path d="M19410 1125 l0 -295 35 0 35 0 0 125 c0 133 10 174 48 208 30 27 96
34 128 13 43 -29 54 -72 54 -216 l0 -130 36 0 36 0 -4 163 c-3 148 -5 165 -26
198 -53 87 -181 92 -249 11 l-23 -27 0 123 0 122 -35 0 -35 0 0 -295z"/>
<path d="M22557 1414 c-4 -4 -7 -42 -7 -85 l0 -78 -62 -3 c-63 -3 -63 -3 -63
-33 0 -30 0 -30 62 -33 l62 -3 3 -153 c4 -197 4 -198 127 -194 l86 3 0 30 0
30 -67 3 -68 3 0 139 0 139 78 3 77 3 0 30 0 30 -77 3 -77 3 -3 82 -3 82 -30
3 c-17 2 -34 0 -38 -4z"/>
<path d="M23937 1414 c-4 -4 -7 -137 -7 -296 l0 -289 38 3 c32 3 37 6 40 32 3
27 4 27 17 8 34 -47 140 -67 208 -38 103 43 147 208 87 326 -32 62 -95 100
-168 100 -42 0 -111 -31 -127 -57 -7 -14 -11 11 -15 97 l-5 115 -30 3 c-17 2
-34 0 -38 -4z m270 -244 c49 -29 66 -71 61 -148 -4 -59 -7 -67 -41 -98 -30
-28 -45 -34 -79 -34 -87 0 -138 55 -138 148 0 120 103 190 197 132z"/>
<path d="M25077 1414 c-4 -4 -7 -42 -7 -85 l0 -78 -62 -3 c-63 -3 -63 -3 -63
-33 0 -30 0 -30 62 -33 l62 -3 3 -153 c4 -197 4 -198 127 -194 l86 3 0 30 0
30 -67 3 -68 3 0 139 0 139 78 3 77 3 0 30 0 30 -77 3 -77 3 -3 82 -3 82 -30
3 c-17 2 -34 0 -38 -4z"/>
<path d="M25577 1414 c-4 -4 -7 -42 -7 -85 l0 -78 -62 -3 c-63 -3 -63 -3 -63
-33 0 -30 0 -30 62 -33 l62 -3 3 -153 c4 -197 4 -198 127 -194 l86 3 0 30 0
30 -67 3 -68 3 0 139 0 139 78 3 77 3 0 30 0 30 -77 3 -77 3 -3 82 -3 82 -30
3 c-17 2 -34 0 -38 -4z"/>
<path d="M27114 1355 c-37 -15 -84 -70 -84 -96 0 -16 10 -10 49 30 27 28 56
51 65 51 8 0 17 4 20 9 10 16 -19 19 -50 6z"/>
<path d="M27486 1361 c-4 -6 4 -15 16 -22 13 -6 42 -30 65 -52 24 -22 45 -39
47 -36 9 9 -27 70 -53 88 -35 24 -68 34 -75 22z"/>
<path d="M27096 1259 c-34 -27 -21 -44 20 -28 18 6 54 8 92 5 66 -7 78 2 40
28 -34 24 -119 21 -152 -5z"/>
<path d="M27403 1268 c-46 -22 -26 -36 50 -35 39 1 82 -2 95 -6 17 -6 22 -5
22 7 0 37 -113 60 -167 34z"/>
<path d="M16997 1246 c-82 -30 -129 -104 -130 -201 -1 -77 15 -124 56 -163 81
-79 215 -83 296 -9 63 58 82 192 39 277 -45 89 -164 132 -261 96z m160 -87
c101 -93 48 -269 -80 -269 -83 0 -137 58 -137 145 0 97 62 161 148 152 27 -3
53 -14 69 -28z"/>
<path d="M17525 1240 c-22 -11 -44 -28 -49 -37 -9 -16 -11 -14 -16 12 -5 27
-9 30 -40 30 l-35 0 0 -290 0 -290 35 0 35 0 3 114 c2 103 4 112 17 94 34 -48
139 -68 208 -39 103 43 147 208 87 326 -22 44 -46 65 -93 85 -50 21 -105 19
-152 -5z m132 -70 c49 -29 66 -71 61 -148 -4 -59 -7 -67 -41 -98 -30 -28 -45
-34 -79 -34 -87 0 -138 55 -138 148 0 120 103 190 197 132z"/>
<path d="M17990 1233 c-91 -48 -131 -153 -100 -264 26 -94 101 -149 200 -149
79 1 132 27 165 85 15 25 26 47 24 49 -2 2 -18 7 -36 10 -27 6 -33 4 -49 -23
-10 -17 -31 -35 -46 -42 -43 -18 -124 -6 -154 22 -24 22 -45 76 -37 92 2 4 76
7 164 7 l159 0 0 50 c0 105 -72 180 -178 188 -48 3 -66 -1 -112 -25z m154 -58
c30 -14 66 -60 66 -84 0 -7 -41 -11 -125 -11 -134 0 -141 3 -109 49 39 56 108
74 168 46z"/>
<path d="M20539 1251 c-84 -26 -120 -94 -87 -165 17 -39 51 -56 140 -71 92
-17 108 -26 108 -66 0 -37 -33 -59 -87 -59 -59 0 -90 17 -110 62 -16 34 -21
37 -48 32 -39 -8 -38 -7 -30 -43 15 -71 90 -120 183 -121 94 0 156 43 167 115
11 78 -32 118 -150 140 -56 11 -85 21 -97 36 -23 27 -22 35 2 59 40 40 160 13
160 -36 0 -21 22 -27 53 -15 24 9 26 13 16 38 -30 80 -127 122 -220 94z"/>
<path d="M21538 1250 c-133 -40 -185 -249 -91 -361 70 -83 225 -91 279 -15 13
19 14 14 12 -59 l-3 -80 -133 -3 -133 -3 3 -32 3 -32 130 -3 c72 -1 140 0 152
3 53 13 53 15 53 311 l0 274 -35 0 c-33 0 -35 -2 -35 -32 -1 -28 -2 -31 -13
-17 -38 50 -118 70 -189 49z m126 -75 c69 -33 96 -137 56 -215 -47 -91 -173
-95 -226 -6 -25 41 -25 132 -1 170 40 60 109 80 171 51z"/>
<path d="M22020 1233 c-91 -48 -131 -153 -100 -264 26 -94 101 -149 200 -149
79 1 132 27 165 85 15 25 26 47 24 49 -2 2 -18 7 -36 10 -27 6 -33 4 -49 -23
-10 -17 -31 -35 -46 -42 -43 -18 -124 -6 -154 22 -24 22 -45 76 -37 92 2 4 76
7 164 7 l159 0 0 50 c0 105 -72 180 -178 188 -48 3 -66 -1 -112 -25z m154 -58
c30 -14 66 -60 66 -84 0 -7 -41 -11 -125 -11 -134 0 -141 3 -109 49 39 56 108
74 168 46z"/>
<path d="M23059 1251 c-84 -26 -120 -94 -87 -165 17 -39 51 -56 140 -71 92
-17 108 -26 108 -66 0 -37 -33 -59 -87 -59 -59 0 -90 17 -110 62 -16 34 -21
37 -48 32 -39 -8 -38 -7 -30 -43 15 -71 90 -120 183 -121 94 0 156 43 167 115
11 78 -32 118 -150 140 -56 11 -85 21 -97 36 -23 27 -22 35 2 59 40 40 160 13
160 -36 0 -21 22 -27 53 -15 24 9 26 13 16 38 -30 80 -127 122 -220 94z"/>
<path d="M24540 1233 c-91 -48 -131 -153 -100 -264 26 -94 101 -149 200 -149
79 1 132 27 165 85 15 25 26 47 24 49 -2 2 -18 7 -36 10 -27 6 -33 4 -49 -23
-10 -17 -31 -35 -46 -42 -43 -18 -124 -6 -154 22 -24 22 -45 76 -37 92 2 4 76
7 164 7 l159 0 0 50 c0 105 -72 180 -178 188 -48 3 -66 -1 -112 -25z m154 -58
c30 -14 66 -60 66 -84 0 -7 -41 -11 -125 -11 -134 0 -141 3 -109 49 39 56 108
74 168 46z"/>
<path d="M26060 1233 c-91 -48 -131 -153 -100 -264 26 -94 101 -149 200 -149
79 1 132 27 165 85 15 25 26 47 24 49 -2 2 -18 7 -36 10 -27 6 -33 4 -49 -23
-10 -17 -31 -35 -46 -42 -43 -18 -124 -6 -154 22 -24 22 -45 76 -37 92 2 4 76
7 164 7 l159 0 0 50 c0 105 -72 180 -178 188 -48 3 -66 -1 -112 -25z m154 -58
c30 -14 66 -60 66 -84 0 -7 -41 -11 -125 -11 -134 0 -141 3 -109 49 39 56 108
74 168 46z"/>
<path d="M26670 1253 c-8 -3 -27 -17 -42 -31 l-28 -26 0 27 c0 27 0 27 -75 27
l-75 0 0 -35 c0 -34 1 -35 40 -35 l40 0 0 -140 0 -140 -45 0 c-45 0 -45 0 -45
-35 l0 -35 136 0 135 0 -3 33 c-3 31 -4 32 -55 35 l-53 3 0 87 c0 106 13 155
47 182 53 41 125 12 137 -56 5 -26 11 -34 22 -30 9 3 24 6 35 6 25 0 26 53 1
99 -30 56 -112 86 -172 64z"/>
<path d="M19944 1236 c-15 -39 -1 -51 64 -54 l62 -3 0 -139 0 -140 -70 0 -70
0 0 -35 0 -35 175 0 175 0 0 35 0 35 -70 0 -70 0 0 175 0 175 -95 0 c-74 0
-97 -3 -101 -14z"/>
<path d="M26985 1165 c-16 -13 -25 -24 -19 -25 6 0 21 11 34 25 30 32 24 32
-15 0z"/>
<path d="M27064 1175 c-4 -8 2 -32 11 -53 50 -105 134 -162 242 -162 110 0
183 45 235 145 42 83 35 91 -58 69 -89 -21 -257 -21 -347 0 -83 19 -76 19 -83
1z m173 -36 c77 -10 215 -1 291 18 26 6 30 -13 9 -41 -28 -38 -221 -57 -343
-35 -71 13 -104 32 -104 60 0 19 4 21 33 15 17 -4 69 -12 114 -17z"/>
<path d="M27655 1153 c22 -21 41 -38 43 -37 9 5 -24 42 -52 57 -29 17 -29 16
9 -20z"/>
<path d="M27581 1086 c-1 -30 3 -46 8 -40 5 5 6 27 1 49 l-8 40 -1 -49z"/>
<path d="M27047 1089 c-2 -19 -1 -38 3 -42 11 -13 22 41 12 60 -7 12 -10 8
-15 -18z"/>
<path d="M27077 970 c71 -66 143 -93 250 -93 74 -1 88 2 155 35 74 37 138 92
123 105 -4 5 -10 2 -12 -5 -16 -45 -122 -105 -217 -123 -102 -19 -216 17 -294
91 -23 22 -45 40 -49 40 -4 -1 16 -23 44 -50z"/>
</g>
</svg>
